# xmcd
#
# Track frame offsets: 
#        150
#        15427
#        34917
#        52785
#        75112
#        91302
#        105670
#        120342
#        138675
#        158425
#        174095
#        194597
#        210060
#        226102
#        239865
#        255607
#        273787
#        294412
#        311737
#        328112
#
# Disc length: 4708 seconds
#
# Revision: 4
# Processed by: cddbd v1.4PL0 Copyright (c) Steve Scherf et al.
# Submitted via: ExactAudioCopy v0.90b4
#
DISCID=f8126214
DTITLE=Reba McEntire - Moments and Memories (The Best Of Reba) (Australi
DTITLE=an Version) 
DYEAR=2000
DGENRE=Country
TTITLE0=Whoever's In New England 
TTITLE1=Does He Love You
TTITLE2=You Lie
TTITLE3=Fancy
TTITLE4=For My Broken Heart
TTITLE5=Is There Life Out There
TTITLE6=The Greatest Man I Never Knew
TTITLE7=Read My Mind
TTITLE8=She Thinks His Name Was John
TTITLE9=Why Haven't I Heard From You
TTITLE10=On My Own
TTITLE11=You Keep Me Hangin' On
TTITLE12=You're No Good
TTITLE13=The Fear Of Being Alone
TTITLE14=I'd Rather Ride Around With You
TTITLE15=What If
TTITLE16=I'll Take Your Heart
TTITLE17=And Still
TTITLE18=I'll Give You Something To Miss
TTITLE19=Fallin' Out Of Love
EXTD=YEAR: 2000 ID3G: 2
EXTT0=
EXTT1=
EXTT2=
EXTT3=
EXTT4=
EXTT5=
EXTT6=
EXTT7=
EXTT8=
EXTT9=
EXTT10=
EXTT11=
EXTT12=
EXTT13=
EXTT14=
EXTT15=
EXTT16=
EXTT17=
EXTT18=
EXTT19=
PLAYORDER=
